<svg width="272" height="137" viewBox="0 0 272 137" fill="none" xmlns="http://www.w3.org/2000/svg">
<path d="M174.957 69.6976C174.189 66.4637 173.365 64.2498 172.451 62.7668C172.479 64.5922 172.44 66.2455 172.371 67.6008C172.029 74.3559 152.477 86.1277 150.439 85.67C140.357 80.515 131.031 74.6717 123.819 68.541C121.546 70.7052 119.656 73.5452 118.304 77.2492C126.448 86.4328 133.199 93.7715 133.199 93.7715C131.862 94.4602 130.362 94.7741 128.86 94.6798C128.81 94.6888 128.76 94.6948 128.709 94.6975C125.698 94.827 119.322 92.6008 116.138 91.4069L115.693 110.933C117.294 109.586 119.585 108.493 122.73 108.804C122.872 108.817 123.002 108.887 123.093 108.996C123.183 109.105 123.226 109.246 123.212 109.387C123.199 109.529 123.129 109.659 123.02 109.749C122.91 109.839 122.769 109.882 122.627 109.868C119.311 109.545 117.072 110.933 115.661 112.387L115.643 113.132C117.522 111.731 120.404 110.498 124.15 111.612C124.286 111.652 124.4 111.745 124.467 111.869C124.534 111.993 124.549 112.139 124.508 112.274C124.468 112.41 124.375 112.523 124.25 112.59C124.126 112.657 123.98 112.672 123.844 112.632C120.042 111.5 117.262 113.033 115.661 114.45C116.478 115.962 116.766 117.961 115.873 120.551C117.934 118.777 119.925 117.381 120.919 117.638C123.321 118.259 124.965 121.101 120.742 124.725C119.889 125.454 118.975 126.171 118.052 126.854C120.848 125.484 123.49 124.514 124.538 125.209C127.028 126.862 125.427 131.98 119.633 133.614C117.637 134.176 116.239 134.645 115.186 135.003V135.588H144.83L144.15 112.385L145.511 111.332L148.743 135.581L182.348 136L174.957 69.6976Z" fill="#111111"/>
<path d="M52.8729 92.9413C52.3392 93.266 51.7255 92.6185 51.8215 91.3448C51.9176 90.0711 58.0762 84.4087 58.0762 84.4087L58.6756 83.8038C58.6756 83.8038 58.7272 84.0344 55.6515 82.814C52.5758 81.5935 53.6111 78.475 55.2833 79.6209C56.9554 80.7669 60.7409 80.9797 60.7409 80.9797L71.0888 81.3008C76.8062 84.1391 73.1612 92.4464 73.1612 92.4464L64.8627 92.7604" stroke="#111111" stroke-width="1.07019" stroke-linecap="round" stroke-linejoin="round"/>
<path d="M57.0446 88.6963C56.8453 88.8045 49.2886 95.2457 52.9531 96.9167" stroke="#111111" stroke-width="1.07019" stroke-linecap="round" stroke-linejoin="round"/>
<path d="M58.2808 90.6955C58.2808 90.6955 52.784 95.8967 52.9334 97.362C53.0828 98.8272 53.942 99.2831 55.5555 97.103" stroke="#111111" stroke-width="1.07019" stroke-linecap="round" stroke-linejoin="round"/>
<path d="M60.0382 92.34C60.0382 92.34 55.4433 95.5331 54.947 98.8485C55.7226 100.759 60.1734 96.6134 61.0575 95.267C61.0575 95.267 63.3826 95.0044 65.7912 91.304" stroke="#111111" stroke-width="1.07019" stroke-linecap="round" stroke-linejoin="round"/>
<path d="M113.571 56.8064C106.734 48.4956 107.652 19.6906 107.652 19.6906C107.652 19.6906 106.439 19.9691 104.015 20.6272C103.649 20.7536 103.303 20.9285 102.985 21.1469L103.41 21.1948C103.41 21.1948 101.501 30.3643 102.615 42.1272C102.615 42.1272 95.8334 41.6464 88.595 37.1158C87.8123 41.6358 96.737 51.8394 100.25 56.5705C103.764 61.3016 125.986 87.2772 128.743 88.7158C131.5 90.1545 144.977 82.6845 144.977 82.6845C133.318 77.1995 120.409 65.1173 113.571 56.8064Z" fill="#111111"/>
<path d="M75.9985 30.5754C75.9238 35.0688 79.9797 39.383 82.7281 42.1059C81.1128 45.1323 77.9464 55.8148 81.8902 75.7378C78.1545 75.7378 75.182 75.791 74.2658 75.9667C71.183 76.5591 72.1721 78.8422 69.9235 79.5518C67.675 80.2613 66.9492 80.5363 66.9492 80.5363C66.9492 80.5363 70.5711 87.7278 68.1945 92.5405C68.1945 92.5405 68.9647 93.1418 71.2435 93.7556C73.5223 94.3694 72.631 96.6932 75.7352 97.1527C77.6546 97.4383 91.7987 97.3975 102.328 97.3301C103.466 97.3221 104.591 97.0809 105.631 96.6214C106.672 96.1619 107.607 95.494 108.378 94.659C109.149 93.8241 109.74 92.84 110.113 91.7679C110.487 90.6958 110.636 89.5585 110.55 88.4267L110.579 88.4374L110.534 88.2334C110.47 87.6238 110.339 87.0231 110.145 86.4417L109.433 83.2131C109.433 83.2131 112.373 87.9726 112.964 89.2143C113.555 90.4561 114.903 90.9404 115.91 91.32C119.011 92.4926 125.617 94.8271 128.7 94.6905C128.751 94.6877 128.801 94.6818 128.851 94.6727C130.353 94.767 131.853 94.4531 133.19 93.7645" stroke="#111111" stroke-width="1.07019" stroke-linecap="round" stroke-linejoin="round"/>
<path d="M182.846 40.8269C181.633 37.9088 176.455 28.6844 164.865 31.1466C162.659 31.6197 160.591 32.1566 158.659 32.7573C149.775 24.3933 136.657 13.6415 128.604 14.2925C124.711 14.634 120.858 15.3342 117.095 16.384C113.037 8.75609 105.354 4.54834 95.1199 9.75127" stroke="#111111" stroke-width="1.07019" stroke-linecap="round" stroke-linejoin="round"/>
<path d="M150.438 85.67C152.039 86.0248 164.563 78.7766 169.937 72.3816" stroke="#111111" stroke-width="1.07019" stroke-linecap="round" stroke-linejoin="round"/>
<path d="M70.8592 93.6101C68.4025 93.0283 67.5753 92.4411 67.5753 92.4411C70.185 87.6746 66.3425 80.6214 66.3425 80.6214C66.3425 80.6214 67.127 80.3394 69.5659 79.6174C70.5479 79.3265 70.9659 78.789 71.3306 78.2107C76.9857 83.0429 74.9079 92.7764 73.9029 96.3242C72.606 95.4799 72.7217 94.0518 70.8592 93.6101Z" fill="#111111"/>
<path d="M83.0322 41.6553C81.8645 43.9176 81.1177 46.3722 80.8281 48.9001C84.329 49.395 87.5186 48.492 89.4683 47.1261C89.1676 46.97 85.6258 44.687 83.0322 41.6553Z" fill="#111111"/>
<path d="M116.583 16.5667C120.619 24.4394 119.596 32.0176 117.148 37.3057C124.591 37.0183 132.297 14.2943 129.129 14.2641C126.552 14.2411 119.879 15.7542 117.47 16.3201C117.477 16.3325 116.575 16.5525 116.583 16.5667Z" fill="#111111"/>
<path d="M179.111 50.5338C180.498 49.3364 180.249 48.5932 179.892 48.2136C179.423 47.7213 179.002 47.1868 178.632 46.617L177.809 45.3309H171.965C171.965 45.3309 173.783 40.1191 177.835 39.9453C178.093 39.9346 179.483 40.1102 181.334 40.4916C179.861 37.8627 176.935 36.0692 173.564 36.0692C168.713 36.0692 164.782 39.7768 164.782 44.3499C164.782 48.9231 168.713 52.6324 173.564 52.6324C175.278 52.6372 176.958 52.1594 178.412 51.2541C178.619 50.9908 178.854 50.7494 179.111 50.5338Z" fill="#111111"/>
<path d="M95.335 17.8634L99.2308 20.7194L103.409 21.1913C103.409 21.1913 101.501 30.3607 102.614 42.1236C102.614 42.1236 95.8936 41.6464 88.6926 37.1744" stroke="#111111" stroke-width="1.07019" stroke-linecap="round" stroke-linejoin="round"/>
<path d="M89.833 10.1202C89.833 10.1202 93.1311 6.92717 95.4828 10.3899C97.0607 12.7261 95.1946 14.3688 93.8035 15.1919" stroke="#111111" stroke-width="1.07019" stroke-linecap="round" stroke-linejoin="round"/>
<path d="M68.5376 22.1439C71.3838 25.784 75.0217 29.0622 78.0405 31.4091" stroke="#111111" stroke-width="1.07019" stroke-linecap="round" stroke-linejoin="round"/>
<path d="M88.7302 12.4689C88.7409 13.5333 90.4433 18.0728 91.5551 19.8644C91.5551 19.8644 86.7858 22.2291 81.6395 27.2741C81.6395 27.2741 78.9302 30.1213 78.1653 31.567C78.1653 31.567 83.5767 36.4223 88.4971 36.7983C93.4176 37.1744 97.4094 31.654 98.0232 27.8205C98.6369 23.987 98.2366 22.8535 97.027 20.6432C95.8173 18.4329 90.3241 10.3792 90.3241 10.3792L88.7302 12.4689Z" stroke="#111111" stroke-width="1.07019" stroke-linecap="round" stroke-linejoin="round"/>
<path d="M91.2758 12.1053C91.2758 12.1053 90.4148 8.22568 88.5221 5.19581C86.7432 2.34689 83.2405 1.02354 80.0723 2.14289C77.4235 3.08129 76.7813 5.0876 76.7813 5.0876C76.7813 5.0876 75.4222 -0.0266275 69.7102 -1.85964e-05C68.7107 0.00551243 67.7229 0.214293 66.8071 0.613555C65.8914 1.01282 65.0669 1.59417 64.3841 2.32205C63.4253 3.30833 62.7758 4.5522 62.5155 5.90114C62.2551 7.25008 62.3951 8.64548 62.9183 9.91623C62.9183 9.91623 52.3196 6.86685 48.7992 18.5535C48.4434 19.7331 48.728 21.7341 49.0856 22.912C51.2558 30.0574 65.0726 27.1694 69.8187 23.2668C75.0273 18.9704 77.0037 15.3959 77.3541 12.7048C76.9112 14.5178 85.3449 20.2884 91.2758 12.1053Z" fill="#111111"/>
<path d="M88.3929 27.6023C88.3929 27.6023 88.1522 29.0108 88.0808 30.1993" stroke="#111111" stroke-width="1.42692" stroke-linecap="round" stroke-linejoin="round"/>
<path d="M79.3428 25.619L83.34 30.5754L84.5016 28.5903" stroke="#111111" stroke-width="1.42692" stroke-linecap="round" stroke-linejoin="round"/>
<path d="M78.16 27.7147C78.4121 27.4604 78.2969 26.9393 77.9028 26.5509C77.5087 26.1626 76.9848 26.0539 76.7328 26.3082C76.4807 26.5626 76.5959 27.0837 76.99 27.472C77.3841 27.8604 77.908 27.9691 78.16 27.7147Z" fill="#111111"/>
<path d="M83.2264 23.8137C83.4785 23.5593 83.3633 23.0382 82.9692 22.6499C82.5751 22.2615 82.0512 22.1528 81.7992 22.4072C81.5471 22.6615 81.6623 23.1826 82.0564 23.571C82.4505 23.9593 82.9744 24.068 83.2264 23.8137Z" fill="#111111"/>
<path d="M81.4171 17.7393C81.4171 18.2714 79.6382 19.4742 77.998 18.8036" stroke="#111111" stroke-width="1.42692" stroke-linecap="round" stroke-linejoin="round"/>
<path d="M73.734 22.967C73.734 22.967 72.133 23.9161 72.8659 25.2731" stroke="#111111" stroke-width="1.42692" stroke-linecap="round" stroke-linejoin="round"/>
<path d="M158.433 32.5391C158.433 32.5391 148.201 34.0505 144.837 41.2119" stroke="#111111" stroke-width="1.07019" stroke-linecap="round" stroke-linejoin="round"/>
<path d="M151.628 53.349C149.552 53.5832 145.199 64.4787 132.137 49.9786" stroke="#111111" stroke-width="1.07019" stroke-linecap="round" stroke-linejoin="round"/>
<path d="M91.6741 48.4655C91.6741 48.4655 89.0342 60.4803 92.5155 65.8251" stroke="#111111" stroke-width="1.07019" stroke-linecap="round" stroke-linejoin="round"/>
<path d="M112.258 41.6181C112.258 41.6181 109.959 56.2831 114.544 62.467" stroke="#111111" stroke-width="1.07019" stroke-linecap="round" stroke-linejoin="round"/>
<path d="M158.808 45.8596C149.844 45.8596 142.577 54.4223 142.577 64.9843V73.1798H175.039V64.9843C175.039 54.4223 167.772 45.8596 158.808 45.8596Z" fill="#111111"/>
<path fill-rule="evenodd" clip-rule="evenodd" d="M225.252 58.3604L225.151 72.3798L220.94 67.4181L217.206 71.8175V58.3604H225.252Z" fill="#292929"/>
<path d="M199.872 58.3696H227.746" stroke="#111111" stroke-width="1.07019" stroke-linecap="round" stroke-linejoin="round"/>
<path d="M193.216 45.9962C193.851 46.7838 197.268 51.0731 198.019 52.9411C198.839 55.0006 197.989 55.7882 196.622 55.0911C196.364 54.9636 196.118 54.8134 195.886 54.6423C196.13 55.7947 196.174 56.9803 196.016 58.1476C195.703 60.3632 194.034 60.1397 193.079 58.4048C192.901 60.145 192.405 60.6559 191.762 60.647C190.821 60.6346 189.727 60.3809 189.774 59.0079C188.777 60.1361 186.618 58.5946 186.572 57.0318C186.518 55.3323 186.593 50.9738 185.129 49.1129L184.513 48.5222C184.513 48.5222 182.466 52.6555 180.288 53.2409C178.111 53.8263 176.955 52.4036 179.123 50.5356C180.511 49.3382 180.262 48.595 179.904 48.2153C179.436 47.723 179.014 47.1886 178.645 46.6188L178.157 45.8596H158.808C167.772 45.8596 175.039 54.4649 175.039 65.0818V69.694H127.571C127.112 69.694 126.671 69.8759 126.347 70.1996C126.022 70.5233 125.84 70.9623 125.84 71.4201V71.4502C125.84 71.908 126.022 72.347 126.347 72.6707C126.671 72.9944 127.112 73.1763 127.571 73.1763H173.061V136H183.16V73.3164H207.506V65.0818C207.5 55.2454 201.262 47.135 193.216 45.9962Z" fill="#292929"/>
<path d="M195.838 54.6157C196.081 54.7978 196.341 54.9569 196.613 55.0911C197.98 55.7882 198.83 55.0006 198.01 52.9411C197.19 50.8815 193.121 45.872 193.121 45.872L191.972 44.6515C188.237 41.3697 178.566 39.9151 177.844 39.947C173.79 40.1244 171.974 45.3327 171.974 45.3327H177.818L178.641 46.6188C179.011 47.1886 179.432 47.723 179.901 48.2153C180.256 48.5949 180.507 49.3382 179.12 50.5356C176.951 52.4036 178.108 53.8263 180.285 53.2409C182.462 52.6555 184.51 48.5222 184.51 48.5222L185.472 49.4447" stroke="#111111" stroke-width="1.07019" stroke-linecap="round" stroke-linejoin="round"/>
<path d="M193.371 49.246C193.675 49.6096 196.667 53.4715 196.007 58.1475C195.717 60.2 194.262 60.1592 193.292 58.7631" stroke="#111111" stroke-width="1.07019" stroke-linecap="round" stroke-linejoin="round"/>
<path d="M191.056 48.9054C192.287 50.742 192.993 52.8778 193.099 55.084C193.324 59.5561 192.695 60.6612 191.754 60.647C190.813 60.6328 189.719 60.3809 189.765 59.0079" stroke="#111111" stroke-width="1.07019" stroke-linecap="round" stroke-linejoin="round"/>
<path d="M188.532 48.9054C189.259 49.7835 190.539 54.5163 190.234 57.6952C189.93 60.8741 186.62 58.9671 186.559 57.03C186.502 55.194 186.595 50.25 184.732 48.7103" stroke="#111111" stroke-width="1.07019" stroke-linecap="round" stroke-linejoin="round"/>
<path d="M124.532 125.202C123.485 124.507 120.843 125.477 118.046 126.846C118.97 126.163 119.884 125.447 120.736 124.718C124.968 121.094 123.324 118.252 120.914 117.631C119.92 117.374 118.365 118.835 116.305 120.606C118.795 113.402 111.705 110.688 109.936 110.494C109.122 110.402 108.298 110.431 107.492 110.581C105.647 108.19 103.12 105.302 102.406 105.215C100.64 104.999 100.124 112.632 100.094 113.171L98.5176 113.741C98.0445 113.912 97.5912 114.133 97.1657 114.401C95.0008 112.627 92.5067 110.831 91.8717 110.888C90.3062 111.027 91.1227 117.806 91.3985 119.804C91.2052 120.121 91.0408 120.455 90.9075 120.801C90.8363 120.978 90.7776 121.166 90.7296 121.347L79.6453 136H115.184V134.996C116.234 134.641 117.632 134.169 119.631 133.607C125.422 131.98 127.019 126.855 124.532 125.202Z" stroke="#111111" stroke-width="1.07019" stroke-linecap="round" stroke-linejoin="round"/>
<path d="M92.697 111.731C92.697 111.731 91.5567 113.077 93.5989 118.401" stroke="#111111" stroke-width="1.07019" stroke-linecap="round" stroke-linejoin="round"/>
<path d="M102.606 105.863C102.606 105.863 101.419 110.709 103.139 112.671" stroke="#111111" stroke-width="1.07019" stroke-linecap="round" stroke-linejoin="round"/>
<path d="M103.626 118.324C103.996 118.127 104.043 117.494 103.73 116.911C103.417 116.328 102.864 116.015 102.494 116.212C102.124 116.409 102.078 117.042 102.39 117.625C102.703 118.208 103.256 118.521 103.626 118.324Z" fill="#111111"/>
<path d="M109.034 116.16C109.404 115.963 109.451 115.331 109.138 114.747C108.826 114.164 108.272 113.851 107.902 114.048C107.532 114.246 107.486 114.878 107.798 115.461C108.111 116.045 108.664 116.358 109.034 116.16Z" fill="#111111"/>
<path d="M108.156 117.663L107.622 118.892C107.579 118.981 107.505 119.052 107.415 119.092C107.325 119.132 107.223 119.139 107.128 119.112L105.895 118.757C105.6 118.672 105.591 118.314 105.881 118.172L107.645 117.299C107.951 117.143 108.279 117.379 108.156 117.663Z" fill="#111111"/>
<path d="M107.302 118.635C107.658 119.295 108.748 119.699 109.821 119.699" stroke="#111111" stroke-width="1.07019" stroke-linecap="round" stroke-linejoin="round"/>
<path d="M107.339 118.617C107.695 119.277 107.517 120.159 106.756 121.076" stroke="#111111" stroke-width="1.07019" stroke-linecap="round" stroke-linejoin="round"/>
<path d="M101.83 120.579C101.83 120.579 95.168 118.477 91.3345 124.319" stroke="#111111" stroke-width="1.07019" stroke-linecap="round" stroke-linejoin="round"/>
<path d="M102.269 121.413C102.269 121.413 95.3316 120.622 92.6846 127.089" stroke="#111111" stroke-width="1.07019" stroke-linecap="round" stroke-linejoin="round"/>
<path d="M116.563 119.701C116.104 121.84 112.718 131.478 100.339 130.492" stroke="#111111" stroke-width="1.07019" stroke-linecap="round" stroke-linejoin="round"/>
<path d="M1 136H271" stroke="#111111" stroke-width="1.07019" stroke-linecap="round" stroke-linejoin="round"/>
</svg>
